<?xml version="1.0" encoding="iso-8859-1"?>
<!-- Generator: Adobe Illustrator 19.0.0, SVG Export Plug-In . SVG Version: 6.00 Build 0)  -->
<svg version="1.1" id="Capa_1" xmlns="http://www.w3.org/2000/svg" xmlns:xlink="http://www.w3.org/1999/xlink" x="0px" y="0px"
	 viewBox="0 0 512.001 512.001" style="enable-background:new 0 0 512.001 512.001;" xml:space="preserve">
<g>
	<g>
		<path d="M293.338,61.604c-8.393-9.908-20.955-14.931-37.337-14.931c-16.742,0-25.836,4.068-34.633,8.001
			c-9.234,4.13-17.956,8.031-37.508,8.031c-5.726,0-9.396,6.46-6.445,11.38c6.893,11.487,18.176,19.408,31.117,24.86
			c-0.077,1.11-0.124,2.224-0.124,3.336c0,26.242,21.351,47.593,47.593,47.593c26.019,0,47.216-20.99,47.576-46.925
			C304.116,99.091,306.491,77.133,293.338,61.604z M256.002,134.844c-17.362,0-31.592-13.658-32.513-30.794
			c19.344,5.261,39.976,6.43,54.423,6.43c3.658,0,6.907-0.075,9.651-0.176C283.98,124.392,271.189,134.844,256.002,134.844z
			 M199.756,76.782c12.681-1.649,20.565-5.176,27.748-8.388c8.03-3.591,14.963-6.692,28.497-6.692
			c11.724,0,20.411,3.216,25.819,9.559c6.262,7.344,7.295,17.605,7.238,23.972C266.111,96.371,222.24,94.331,199.756,76.782z"/>
	</g>
</g>
<g>
	<g>
		<path d="M445.635,77.637c-8.393-9.908-20.955-14.931-37.337-14.931c-16.742,0-25.836,4.068-34.633,8.001
			c-9.234,4.13-17.956,8.031-37.508,8.031c-5.726,0-9.396,6.46-6.445,11.38c6.892,11.484,18.173,19.405,31.111,24.857
			c-0.077,1.112-0.118,2.227-0.118,3.34c0,26.242,21.351,47.593,47.593,47.593c26.019,0,47.216-20.99,47.576-46.925
			C456.413,115.123,458.788,93.165,445.635,77.637z M408.299,150.876c-17.362,0-31.592-13.658-32.513-30.794
			c19.344,5.261,39.976,6.43,54.423,6.43c3.658,0,6.907-0.075,9.651-0.176C436.277,140.423,423.487,150.876,408.299,150.876z
			 M352.053,92.813c12.681-1.649,20.565-5.176,27.748-8.388c8.03-3.591,14.963-6.692,28.497-6.692
			c11.724,0,20.411,3.216,25.819,9.559c6.262,7.344,7.295,17.605,7.238,23.972C418.409,112.403,374.537,110.363,352.053,92.813z"/>
	</g>
</g>
<g>
	<g>
		<path d="M141.041,77.636c-8.393-9.908-20.955-14.931-37.337-14.931c-16.742,0-25.836,4.068-34.633,8.001
			c-9.234,4.13-17.956,8.031-37.508,8.031c-5.726,0-9.396,6.46-6.445,11.38c6.892,11.487,18.176,19.409,31.117,24.859
			c-0.077,1.111-0.124,2.224-0.124,3.336c0,26.242,21.351,47.593,47.593,47.593c26.019,0,47.216-20.99,47.576-46.925
			C151.819,115.122,154.195,93.164,141.041,77.636z M103.705,150.876c-17.362,0-31.592-13.658-32.513-30.794
			c19.344,5.261,39.976,6.43,54.423,6.43c3.658,0,6.907-0.075,9.651-0.176C131.683,140.423,118.892,150.876,103.705,150.876z
			 M47.459,92.813c12.681-1.649,20.565-5.176,27.748-8.388c8.03-3.591,14.963-6.692,28.497-6.692
			c11.724,0,20.411,3.216,25.819,9.559c6.262,7.344,7.295,17.605,7.238,23.972C113.815,112.403,69.943,110.363,47.459,92.813z"/>
	</g>
</g>
<g>
	<g>
		<path d="M511.768,260.737c-0.85-3.328-3.846-5.657-7.282-5.657h-32.564v-48.595c0-21.823-17.755-39.577-39.577-39.577h-48.094
			c-21.823,0-39.577,17.755-39.577,39.577v48.595h-25.049v-64.626c0-21.823-17.755-39.577-39.577-39.577h-48.094
			c-21.823,0-39.577,17.755-39.577,39.577v64.626h-25.049v-48.595c0-21.823-17.755-39.577-39.577-39.577H79.657
			c-21.823,0-39.577,17.755-39.577,39.577v48.595H7.516c-3.436,0-6.432,2.33-7.282,5.657c-0.849,3.328,0.667,6.809,3.683,8.454
			l47.606,25.967H7.517c-4.151,0-7.515,3.364-7.515,7.515c0,4.151,3.364,7.515,7.515,7.515h285.719
			c9.544,0,17.308,7.764,17.308,17.308c0,9.544-7.764,17.308-17.308,17.308h-117.39c-4.151,0-7.515,3.364-7.515,7.515
			c0,4.151,3.364,7.515,7.515,7.515h52.554l41.33,35.424c1.362,1.167,3.097,1.81,4.891,1.81h55.85c1.483,0,2.935-0.439,4.168-1.262
			l72.431-48.287c3.848-2.564,8.46-3.48,12.996-2.57c4.532,0.906,8.441,3.525,11.005,7.37l7.068,10.602l-85.95,63.029
			l-120.515,24.104L106.102,407.77c-0.017-0.006-0.034-0.009-0.051-0.014c-0.163-0.054-0.331-0.098-0.499-0.14
			c-0.083-0.021-0.165-0.046-0.248-0.064c-0.129-0.028-0.261-0.047-0.392-0.069c-0.126-0.021-0.253-0.043-0.38-0.058
			c-0.089-0.01-0.179-0.013-0.268-0.02c-0.168-0.013-0.338-0.024-0.505-0.025c-0.019,0-0.036-0.003-0.055-0.003H7.516
			c-4.151,0-7.515,3.364-7.515,7.515s3.364,7.515,7.515,7.515h94.957l126.306,42.529c0.776,0.261,1.586,0.394,2.399,0.394
			c0.493,0,0.986-0.049,1.474-0.146l124.113-24.822c1.073-0.215,2.087-0.661,2.971-1.31l93.085-68.262
			c3.24-2.377,4.038-6.883,1.809-10.228l-11.054-16.58c-4.79-7.187-12.094-12.079-20.563-13.772
			c-4.253-0.851-8.546-0.843-12.677-0.018l10.903-13.63l86.846-47.37C511.1,267.546,512.616,264.066,511.768,260.737z
			 M207.407,190.453c0-13.536,11.011-24.548,24.548-24.548h48.094c13.536,0,24.548,11.011,24.548,24.548v64.626h-97.19V190.453z
			 M55.11,206.484c0-13.536,11.011-24.548,24.548-24.548h48.094c13.536,0,24.548,11.011,24.548,24.548v48.595H55.11V206.484z
			 M414.398,303.173h-73.231c-4.151,0-7.515,3.364-7.515,7.515s3.364,7.515,7.515,7.515h59.512l-12.67,15.837
			c-4.684,5.854-11.67,9.212-19.168,9.212h-17.153c-4.151,0-7.515,3.364-7.515,7.515s3.364,7.515,7.515,7.515h12.141l-35.635,23.756
			h-50.795l-25.906-22.204h41.742c17.831,0,32.337-14.507,32.337-32.337s-14.507-32.337-32.337-32.337H81.436
			c-0.63-0.855-44.45-25.049-44.45-25.049h367.306c4.151,0,7.515-3.364,7.515-7.515s-3.364-7.515-7.515-7.515h-44.588v-48.595
			c0-13.536,11.011-24.548,24.548-24.548h48.094c13.536,0,24.548,11.011,24.548,24.548v48.595h-16.532
			c-4.151,0-7.515,3.364-7.515,7.515s3.364,7.515,7.515,7.515h34.656L414.398,303.173z"/>
	</g>
</g>
<g>
</g>
<g>
</g>
<g>
</g>
<g>
</g>
<g>
</g>
<g>
</g>
<g>
</g>
<g>
</g>
<g>
</g>
<g>
</g>
<g>
</g>
<g>
</g>
<g>
</g>
<g>
</g>
<g>
</g>
</svg>
